Coordinates
version=1
nRows=14
nColumns=36
inDegrees=yes

Units are S.I. units (second, meters, Newtons, ...)
If the header above contains a line with 'inDegrees', this indicates whether rotational values are in degrees (yes) or radians (no).

endheader
time	pelvis_tilt	pelvis_list	pelvis_rotation	pelvis_tx	pelvis_ty	pelvis_tz	hip_flexion_r	hip_adduction_r	hip_rotation_r	knee_angle_r	knee_angle_r_beta	ankle_angle_r	subtalar_angle_r	mtp_angle_r	hip_flexion_l	hip_adduction_l	hip_rotation_l	knee_angle_l	knee_angle_l_beta	ankle_angle_l	subtalar_angle_l	mtp_angle_l	lumbar_extension	lumbar_bending	lumbar_rotation	arm_flex_r	arm_add_r	arm_rot_r	elbow_flex_r	pro_sup_r	arm_flex_l	arm_add_l	arm_rot_l	elbow_flex_l	pro_sup_l
      4.25000000	    -24.19465088	     -7.61494630	     14.95895384	      0.77743627	      0.80354528	      0.12926748	     67.77239591	    -11.07588665	     -2.02127489	     64.42601246	      1.12444604	     26.23885093	     -4.27721835	     -7.49999987	     67.96746117	    -11.70152956	      2.07860324	     62.93394853	      1.09840461	     20.45260588	    -11.32418410	     -7.49999987	    -20.40579169	     -1.93033358	      4.22988550	     31.33799289	    -21.38958312	     12.65929926	     85.00331049	     76.73315919	     34.36227555	    -16.25184117	     27.60841165	     83.04576356	     87.75596079
      4.26666670	    -23.62323393	     -7.50726838	     14.84445660	      0.77298232	      0.81148213	      0.13100603	     64.99213625	    -10.69431137	     -2.56588852	     61.28378391	      1.06960381	     24.98979859	     -4.32173283	     -7.49999987	     65.00797958	    -11.75459944	      1.82292272	     59.66296298	      1.04131515	     19.03030241	    -11.20776659	     -7.49999987	    -19.52820487	     -1.73684534	      4.25899094	     30.29667404	    -19.55345759	     12.89860549	     77.37423593	     77.48273028	     33.76473836	    -14.77644530	     27.51410048	     75.25820459	     88.39841442
      4.28333330	    -22.54448957	     -7.27579653	     14.64693884	      0.79154980	      0.81919773	      0.13170697	     61.62278256	    -10.01196267	     -2.88243020	     58.17386740	      1.01532552	     23.82959055	     -4.92508234	     -7.49999987	     61.30114616	    -12.03725045	      1.46291048	     56.30263248	      0.98266631	     17.82820619	    -11.05196281	     -7.49999987	    -19.08218436	     -1.82334498	      4.50491379	     27.86129394	    -17.80449736	     12.58023737	     72.83884051	     77.76951914	     31.46576748	    -13.91531216	     26.18875015	     70.83503604	     88.35205999
      4.30000000	    -21.99902184	     -7.15338072	     14.46972513	      0.79159382	      0.82902517	      0.13122491	     59.17184512	     -9.48242476	     -3.13911936	     55.55907263	      0.96968875	     22.95151471	     -5.28632370	     -7.49999987	     58.67219164	    -12.30264742	      0.99130584	     53.51378257	      0.93399170	     16.90896531	    -10.66259793	     -7.49999987	    -18.15278438	     -1.83339486	      4.58016570	     26.81095821	    -16.69762190	     13.39176852	     66.99239940	     78.12390044	     29.36557032	    -12.67791923	     24.99586919	     65.47512378	     88.03533820
      4.31666670	    -21.52232746	     -6.80112348	     14.13986143	      0.78601982	      0.83880841	      0.12881287	     57.06719422	     -9.05787609	     -3.07746524	     53.01732036	      0.92532680	     21.62720667	     -5.82049266	     -7.49999987	     56.23252037	    -12.50746989	      0.09556016	     50.84288650	      0.88737577	     15.99965211	    -10.35878222	     -7.49999987	    -17.79984878	     -2.07907019	      4.92121964	     26.63658722	    -16.49189876	     14.43553339	     62.02561900	     78.21420034	     27.83693907	    -11.65859590	     24.40461372	     60.47451153	     87.59444704
      4.33333330	    -21.24270594	     -6.65510061	     13.92756827	      0.79091167	      0.85522692	      0.12695889	     54.86853108	     -8.81071429	     -3.51857086	     49.94194162	      0.87165132	     20.31591185	     -5.86307313	     -7.49999987	     53.94231288	    -12.51743549	     -0.46121337	     47.85536435	      0.83523367	     15.00314420	    -10.04684934	     -7.49999987	    -17.06442589	     -1.86490369	      4.70494798	     25.81880262	    -15.55983169	     15.52986068	     55.66558300	     77.78317454	     26.37796322	    -10.74389777	     23.40074387	     54.16572839	     86.18442720
      4.35000000	    -20.74332611	     -6.47990760	     13.69855492	      0.79495893	      0.86653080	      0.12481025	     52.49339263	     -8.51992350	     -3.84358428	     46.90518274	      0.81864988	     18.81277182	     -5.79388100	     -7.49999987	     51.41850256	    -12.52886555	     -1.07258192	     44.89004008	      0.78347900	     13.66128384	    -10.09618418	     -7.49999987	    -16.50298943	     -1.57572290	      3.51207031	     25.38523489	    -14.83089281	     18.56041057	     49.77670357	     75.06641251	     23.67679472	    -10.71323701	     22.25562677	     50.31513673	     79.74622767
      4.36666670	    -20.23159454	     -6.19385400	     13.39583348	      0.79578090	      0.87018337	      0.12493175	     50.50119110	     -8.22753058	     -3.81167097	     44.39337673	      0.77481059	     17.34314055	     -6.10298914	     -7.49999987	     49.22108988	    -12.54645803	     -1.83480220	     42.50814513	      0.74190709	     12.64855257	    -10.13488230	     -7.49999987	    -16.07799288	     -1.62696152	      3.71898134	     23.62889835	    -14.64339348	     18.41604374	     46.79176068	     74.71923485	     21.70177377	    -10.37802037	     21.44571541	     46.18121546	     79.07099742
      4.38333330	    -19.65374292	     -6.00143055	     13.26412576	      0.79628660	      0.88812391	      0.12612897	     48.18101717	     -8.04321931	     -4.18926509	     41.46680300	      0.72373224	     15.78975300	     -5.96298337	     -7.49999987	     46.91289801	    -12.50263851	     -2.52615397	     39.79126342	      0.69448856	     11.22282283	    -10.17118841	     -7.49999987	    -15.48130046	     -1.54882790	      3.78205531	     22.53348497	    -14.39606485	     19.01543844	     42.15941915	     71.02294428	     20.85462917	    -10.02894312	     21.92185277	     40.61850222	     72.89103557
      4.40000000	    -18.67901047	     -5.74285920	     13.04270282	      0.80256040	      0.89743566	      0.12381739	     45.38558615	     -7.71497341	     -4.44526833	     38.38903575	      0.67001507	     14.18687091	     -5.91833204	     -7.49999987	     43.98995917	    -12.52699900	     -3.35777286	     36.85000768	      0.64315396	      9.68130055	    -10.34790093	     -7.49999987	    -15.52123499	     -1.41019334	      3.91075462	     21.32403185	    -14.12935448	     18.78726252	     38.98320324	     70.81994532	     19.76994651	     -9.65335404	     21.55275223	     37.42279167	     72.51622789
      4.41666670	    -18.01140569	     -5.48250766	     12.85165494	      0.80157612	      0.90384736	      0.12349483	     43.03806663	     -7.50228166	     -4.64494482	     35.46605473	      0.61899943	     12.73317422	     -5.68281945	     -7.49999987	     41.42557389	    -12.42496502	     -4.20664599	     33.94565402	      0.59246343	      8.30463684	    -10.28535644	     -7.49999987	    -15.00820627	     -1.32801899	      3.92328794	     20.33944441	    -13.96075669	     18.87057650	     35.95806987	     70.64136914	     18.67740699	     -9.32692432	     21.32063550	     33.42043056	     72.14206149
      4.43333330	    -17.51449631	     -5.35015485	     12.73829453	      0.80282140	      0.91336087	      0.12305289	     40.84753751	     -7.33554121	     -5.10485838	     32.49523937	      0.56714892	     11.32573491	     -5.12965798	     -7.49999987	     39.18290797	    -12.31476235	     -5.00110540	     31.08451618	      0.54252715	      7.03598794	    -10.08064191	     -7.49999987	    -14.06808332	     -1.17693097	      4.17188335	     19.60152645	    -13.79803390	     19.10036197	     31.71984695	     70.39655395	     17.98633656	     -8.74348889	     20.92775467	     27.54048724	     71.60930610
      4.45000000	    -16.86027380	     -5.14868192	     12.58965535	      0.80599146	      0.91733325	      0.11482831	     38.56075593	     -7.20922289	     -5.43120938	     29.63203442	      0.51717656	     10.08915409	     -4.71227614	     -7.49999987	     36.82067681	    -12.12964663	     -5.81367285	     28.39303617	      0.49555197	      5.87306419	    -10.04151596	     -7.49999987	    -13.80249460	     -0.88164824	      4.56625671	     18.05530368	    -14.40272750	     19.07406391	     29.37842148	     70.30997806	     16.53184285	     -8.35259000	     20.59471344	     25.27693248	     71.39366967
      4.46666670	    -15.84744711	     -4.95670806	     12.63604580	      0.82023676	      0.91833999	      0.10749059	     35.45736275	     -7.09087227	     -5.80155871	     26.39719863	      0.46071803	      9.21681465	     -4.24567293	     -7.49999987	     33.74005919	    -11.83034603	     -6.48633536	     25.41461665	      0.44356874	      4.81903213	    -10.03592544	     -7.49999987	    -13.04128955	     -0.42877031	      4.93099154	     16.24259346	    -14.69127900	     19.11821201	     25.40718077	     71.10212902	     15.14051702	     -7.39591586	     20.04166502	     20.91612716	     72.05393837
